<svg width="51" height="51" viewBox="0 0 51 51" fill="none" xmlns="http://www.w3.org/2000/svg">
<path d="M45.5311 0H5.46373C4.01466 0 2.62494 0.575641 1.60029 1.60029C0.575641 2.62494 0 4.01466 0 5.46373L0 45.5311C0 46.9801 0.575641 48.3698 1.60029 49.3945C2.62494 50.4191 4.01466 50.9948 5.46373 50.9948H21.0866V33.6577H13.9154V25.4974H21.0866V19.2778C21.0866 12.2035 25.2982 8.29576 31.7488 8.29576C34.8381 8.29576 38.0685 8.84668 38.0685 8.84668V15.7902H34.5091C31.0021 15.7902 29.9082 17.9666 29.9082 20.1987V25.4974H37.7373L36.4852 33.6577H29.9082V50.9948H45.5311C46.9801 50.9948 48.3698 50.4191 49.3945 49.3945C50.4191 48.3698 50.9948 46.9801 50.9948 45.5311V5.46373C50.9948 4.01466 50.4191 2.62494 49.3945 1.60029C48.3698 0.575641 46.9801 0 45.5311 0Z" fill="white"/>
</svg>
