<svg width="51" height="51" viewBox="0 0 51 51" fill="none" xmlns="http://www.w3.org/2000/svg">
<path d="M25.5 19.4278C24.2991 19.4283 23.1254 19.7848 22.1271 20.4523C21.1288 21.1198 20.3509 22.0683 19.8917 23.1779C19.4324 24.2874 19.3125 25.5083 19.547 26.686C19.7816 27.8638 20.3601 28.9455 21.2094 29.7945C22.0587 30.6435 23.1407 31.2216 24.3185 31.4557C25.4963 31.6898 26.7171 31.5694 27.8265 31.1098C28.9359 30.6501 29.8842 29.8718 30.5513 28.8733C31.2184 27.8748 31.5745 26.7009 31.5745 25.5C31.5733 23.8895 30.9328 22.3454 29.7938 21.2068C28.6548 20.0683 27.1105 19.4284 25.5 19.4278ZM39.6969 14.7604C39.3878 13.977 38.921 13.2655 38.3255 12.67C37.73 12.0745 37.0184 11.6077 36.235 11.2985C33.8444 10.3548 28.1525 10.5666 25.5 10.5666C22.8475 10.5666 17.1613 10.3469 14.7638 11.2985C13.9804 11.6077 13.2689 12.0745 12.6734 12.67C12.0779 13.2655 11.6111 13.977 11.302 14.7604C10.3594 17.151 10.57 22.8487 10.57 25.4989C10.57 28.149 10.3594 33.8399 11.3065 36.2385C11.6156 37.0219 12.0824 37.7334 12.6779 38.3289C13.2735 38.9244 13.985 39.3912 14.7684 39.7003C17.159 40.644 22.851 40.4323 25.5046 40.4323C28.1581 40.4323 33.8421 40.652 36.2396 39.7003C37.023 39.3912 37.7345 38.9244 38.33 38.3289C38.9255 37.7334 39.3923 37.0219 39.7015 36.2385C40.652 33.8478 40.4334 28.1502 40.4334 25.5C40.4334 22.8498 40.652 17.1601 39.7015 14.7615L39.6969 14.7604ZM25.5 34.8348C23.6537 34.8348 21.849 34.2873 20.3139 33.2616C18.7787 32.2359 17.5823 30.778 16.8757 29.0723C16.1692 27.3666 15.9844 25.4896 16.3445 23.6789C16.7047 21.8681 17.5938 20.2048 18.8993 18.8993C20.2048 17.5938 21.8681 16.7047 23.6789 16.3445C25.4896 15.9844 27.3666 16.1692 29.0723 16.8757C30.778 17.5823 32.2359 18.7787 33.2616 20.3139C34.2873 21.849 34.8348 23.6537 34.8348 25.5C34.8363 26.7263 34.5959 27.9408 34.1273 29.0741C33.6587 30.2073 32.9712 31.2369 32.1041 32.1041C31.2369 32.9712 30.2073 33.6587 29.0741 34.1273C27.9408 34.5959 26.7263 34.8363 25.5 34.8348ZM35.2196 17.9525C34.7886 17.9527 34.3672 17.8251 34.0088 17.5858C33.6503 17.3465 33.3708 17.0063 33.2058 16.6082C33.0407 16.2101 32.9974 15.7719 33.0813 15.3492C33.1652 14.9265 33.3727 14.5381 33.6774 14.2333C33.982 13.9284 34.3703 13.7208 34.793 13.6366C35.2157 13.5525 35.6538 13.5956 36.052 13.7604C36.4502 13.9253 36.7906 14.2046 37.0301 14.5629C37.2695 14.9213 37.3973 15.3426 37.3973 15.7736C37.3985 16.0598 37.3432 16.3434 37.2346 16.6082C37.1259 16.873 36.966 17.1137 36.7641 17.3165C36.5622 17.5194 36.3223 17.6804 36.058 17.7903C35.7937 17.9002 35.5104 17.9569 35.2242 17.957L35.2196 17.9525ZM45.5357 0H5.46429C4.01507 0 2.6252 0.5757 1.60045 1.60045C0.5757 2.6252 0 4.01507 0 5.46429L0 45.5357C0 46.9849 0.5757 48.3748 1.60045 49.3995C2.6252 50.4243 4.01507 51 5.46429 51H45.5357C46.9849 51 48.3748 50.4243 49.3995 49.3995C50.4243 48.3748 51 46.9849 51 45.5357V5.46429C51 4.01507 50.4243 2.6252 49.3995 1.60045C48.3748 0.5757 46.9849 0 45.5357 0ZM43.5868 33.0134C43.4399 35.9311 42.774 38.5164 40.644 40.6406C38.5141 42.7649 35.9311 43.4445 33.0168 43.5834C30.0103 43.753 20.9965 43.753 17.99 43.5834C15.0723 43.4365 12.4961 42.7694 10.3628 40.6406C8.22944 38.5118 7.55893 35.9254 7.42004 33.0134C7.25042 30.0058 7.25042 20.9908 7.42004 17.9866C7.5669 15.0689 8.22489 12.4836 10.3628 10.3594C12.5007 8.23513 15.0837 7.56348 17.99 7.4246C20.9965 7.25498 30.0103 7.25498 33.0168 7.4246C35.9345 7.57145 38.5187 8.23855 40.644 10.3673C42.7694 12.4961 43.4479 15.0826 43.5868 18.0003C43.7564 20.9965 43.7564 30.0035 43.5868 33.0134Z" fill="white"/>
</svg>
