<svg width="51" height="51" viewBox="0 0 51 51" fill="none" xmlns="http://www.w3.org/2000/svg">
<path d="M45.5311 0H5.46373C2.44729 0 0 2.44729 0 5.46373V45.5311C0 48.5475 2.44729 50.9948 5.46373 50.9948H45.5311C48.5475 50.9948 50.9948 48.5475 50.9948 45.5311V5.46373C50.9948 2.44729 48.5475 0 45.5311 0ZM39.9649 18.0758C39.9876 18.3945 39.9876 18.7246 39.9876 19.0434C39.9876 28.9122 32.475 40.2836 18.7474 40.2836C14.513 40.2836 10.586 39.0543 7.28497 36.9371C7.88825 37.0054 8.46878 37.0281 9.08345 37.0281C12.578 37.0281 15.7879 35.8443 18.349 33.841C15.0708 33.7727 12.3161 31.6213 11.3714 28.6618C12.521 28.8325 13.5569 28.8325 14.7407 28.5252C11.3258 27.8309 8.76473 24.8258 8.76473 21.1947V21.1036C9.75503 21.6614 10.9161 22.0029 12.134 22.0484C11.1101 21.3673 10.2706 20.4433 9.69068 19.3588C9.11072 18.2744 8.80825 17.0632 8.81026 15.8334C8.81026 14.4447 9.17451 13.1699 9.82333 12.0657C13.5 16.5961 19.0206 19.5556 25.2128 19.8743C24.1542 14.809 27.9447 10.6998 32.4978 10.6998C34.6491 10.6998 36.5842 11.599 37.9501 13.056C39.6348 12.7373 41.2511 12.1113 42.6854 11.2576C42.1276 12.9877 40.9552 14.4447 39.4071 15.3667C40.9097 15.2074 42.3666 14.7862 43.7098 14.2057C42.6967 15.6968 41.4219 17.0172 39.9649 18.0758Z" fill="white"/>
</svg>
